<?xml version="1.0" encoding="utf-8"?>
<!-- Generator: Adobe Illustrator 15.1.0, SVG Export Plug-In . SVG Version: 6.00 Build 0)  -->
<!DOCTYPE svg PUBLIC "-//W3C//DTD SVG 1.1//EN" "http://www.w3.org/Graphics/SVG/1.1/DTD/svg11.dtd">
<svg version="1.1" id="Layer_1" xmlns="http://www.w3.org/2000/svg" xmlns:xlink="http://www.w3.org/1999/xlink" x="0px" y="0px"
	 width="79.25px" height="79.5px" viewBox="0 -16.26 79.25 79.5" enable-background="new 0 -16.26 79.25 79.5" xml:space="preserve"
	>
<g>
	<path fill="#1B417F" d="M6.896,0.004h64.333h0.023L71.295,0l0,0v0.004c2.195,0,4.182,0.896,5.618,2.346
		c1.44,1.449,2.331,3.454,2.331,5.671h0.005l0,0l0,0h-0.005c0,1.425-0.368,2.762-1.008,3.917c-0.098,0.171-0.211,0.353-0.336,0.545
		c-0.475,0.706-1.06,1.336-1.726,1.862l3.03,25.376c0.029,0.233,0.043,0.459,0.043,0.681c0,1.673-0.729,3.179-1.874,4.313
		c-1.11,1.101-2.617,1.853-4.226,2.048c-0.275,0.033-0.557,0.05-0.83,0.05H6.896l0,0v-0.005c-1.899,0-3.621-0.78-4.869-2.036
		c-1.247-1.258-2.022-2.995-2.024-4.914H0l0,0V6.958V6.955h0.002C0.005,5.04,0.78,3.304,2.027,2.043
		c1.249-1.258,2.97-2.039,4.867-2.039V0h0.002V0.004L6.896,0.004z"/>
	<path fill="#FFFFFF" d="M23.751,11.758c5.318,0,9.84,3.399,11.518,8.145h22.01V15.88l0,0v-0.02v-0.012l0,0
		c0.016-2.338,1.898-4.22,4.229-4.249l0,0h0.043h3.865v2.52v0.133v5.648v5.654h-0.002c-0.011,1.37-1.116,2.469-2.483,2.483v0.004
		H35.269c-1.677,4.744-6.203,8.143-11.518,8.143c-6.748,0-12.215-5.469-12.215-12.215C11.537,17.227,17.004,11.758,23.751,11.758
		L23.751,11.758z M59.764,15.849L59.764,15.849v6.542H35.862h-0.948H27.96v-3.93h-0.004c0-0.109-0.029-0.227-0.093-0.333
		c-0.186-0.319-0.593-0.423-0.908-0.238l-4.686,2.757l-4.678,2.74c-0.097,0.063-0.183,0.146-0.248,0.247
		c-0.187,0.314-0.079,0.729,0.237,0.909l4.688,2.755l4.644,2.729c0.107,0.073,0.238,0.119,0.378,0.119
		c0.368,0,0.668-0.298,0.668-0.666v-3.923h6.954h0.948h27.07v-11.28h-1.513h-0.024v0.005l-0.027-0.005
		C60.496,14.277,59.785,14.976,59.764,15.849z"/>
</g>
</svg>
